<svg id="Camada_1" data-name="Camada 1" xmlns="http://www.w3.org/2000/svg" viewBox="0 0 139 139"><defs><style>.cls-1{fill:#eeebeb;}</style></defs><title>assets</title><path class="cls-1" d="M47,30.46h3.52v3.47h3.21V30.46h3.52V41H53.72V37.46H50.51V41H47V30.46ZM61.87,34h-3.1V30.46h9.72V34h-3.1v7H61.87ZM70,30.46h3.67L76,34.16l2.26-3.7h3.67V41H78.38V35.77L76,39.51H75.9l-2.42-3.74V41H70V30.46Zm13.6,0h3.52v7h5V41H83.64Z"/><path class="cls-1" d="M41.84,45.8l5,56.47,22.6,6.27,22.65-6.28,5-56.46ZM86.66,59.2l-.32,3.51-.13,1.56H59.7l.64,7.09H85.58l-.17,1.86L83.78,91.46l-.11,1.17L69.5,96.56h0L55.28,92.63l-1-10.88h6.95l.5,5.53,7.71,2.08h0l7.72-2.09.8-9H54L52.3,59.2l-.17-1.86h34.7Z"/></svg>