<svg id="Camada_1" data-name="Camada 1" xmlns="http://www.w3.org/2000/svg" viewBox="0 0 19.47 23.14"><defs><style>.cls-1{fill:#eeebeb;}</style></defs><title>assets</title><path class="cls-1" d="M.07,14.4a.16.16,0,0,1,0-.26.69.69,0,0,1,.66-.2,1.16,1.16,0,0,1,.47.13,2.86,2.86,0,0,1,1,.9,7.07,7.07,0,0,0,.9,1,2.49,2.49,0,0,0,3.27.2,2,2,0,0,1,.44-.8,2,2,0,0,1,.56-.47c.18-.09.49-.22.94-.4a12.21,12.21,0,0,1-3.57-.77A5.91,5.91,0,0,1,2.6,12.27,5.62,5.62,0,0,1,1.3,9.14,7.93,7.93,0,0,1,1.6,5.6,6.14,6.14,0,0,1,2.73,3.8,6.07,6.07,0,0,1,2.93,0,6.9,6.9,0,0,1,6.8,1.47a14.65,14.65,0,0,1,6.94-.07A12.63,12.63,0,0,1,15.17.57,5.74,5.74,0,0,1,17.61,0,7.31,7.31,0,0,1,18,1.73a5.48,5.48,0,0,1-.1,1.87,6.1,6.1,0,0,1,1.6,4.27,7.54,7.54,0,0,1-.73,3.53,5.62,5.62,0,0,1-2.6,2.34,9.35,9.35,0,0,1-3.34.73,4.39,4.39,0,0,1,1.37,1A2.91,2.91,0,0,1,14.74,17v2.1l.06,2a2.65,2.65,0,0,0,.47.57,3,3,0,0,0,.47.33.22.22,0,0,1,.13.3c0,.13-.22.2-.53.2a2.22,2.22,0,0,1-1.8-.8,1.46,1.46,0,0,1-.2-.8v-3.2a1,1,0,0,0-.27-.77,1.43,1.43,0,0,0-.53-.3v4.2a2.72,2.72,0,0,0,.26,1.47,1.64,1.64,0,0,1,.34.67s0,.08-.1.1a1.33,1.33,0,0,1-.57-.1,1.67,1.67,0,0,1-1.2-.9,3.5,3.5,0,0,1-.33-1.5V16.47h-.87v4.14a3.7,3.7,0,0,1-.33,1.53,1.88,1.88,0,0,1-1.74,1c-.13,0-.2-.09-.2-.13a5.23,5.23,0,0,0,.4-.67,3,3,0,0,0,.17-.53,3.76,3.76,0,0,0,.1-.94v-4.2A1.14,1.14,0,0,0,8,17a1,1,0,0,0-.23.77v3.2a1.56,1.56,0,0,1-.2.8,2.12,2.12,0,0,1-1.8.8c-.32,0-.49-.07-.54-.2a.18.18,0,0,1,0-.23,1.41,1.41,0,0,1,.3-.24,1.11,1.11,0,0,0,.26-.2,1.19,1.19,0,0,0,.4-.53,2.44,2.44,0,0,0,.1-1.4,6.75,6.75,0,0,1,0-1.47,3.87,3.87,0,0,1-3.54-.6,6.3,6.3,0,0,1-1.06-1.53A6.83,6.83,0,0,0,.07,14.4Z"/></svg>