<svg id="Camada_1" data-name="Camada 1" xmlns="http://www.w3.org/2000/svg" viewBox="0 0 139 139"><defs><style>.cls-1{fill:#eeebeb;}</style></defs><title>assets</title><path class="cls-1" d="M30.46,30.46v78.08h78.08V30.46ZM71.62,97.34a9.26,9.26,0,0,1-5.9,4.61,14.19,14.19,0,0,1-10.44-1.28A11.73,11.73,0,0,1,51,95.74l5.94-3.64a4.1,4.1,0,0,1,.41.67,6.26,6.26,0,0,0,2.7,2.8c1.26.43,4,.7,5.1-1.51.65-1.13.44-4.81.44-8.83,0-6.31,0-12.58,0-18.88h7.31c0,6.71,0,13.41,0,20.1C72.92,90.56,73.28,94.27,71.62,97.34Zm30.3-2.07c-2.54,8.69-16.7,9-22.35,3.23a13,13,0,0,1-2.66-3.61l5.93-3.43c1.59,2.45,3.06,3.79,5.7,4.34,3.59.44,7.19-.79,6.38-4.6-.83-3.11-7.34-3.87-11.77-7.2-4.5-3-5.55-10.36-1.85-14.55a10.46,10.46,0,0,1,5.53-3.27l2.3-.29c4.42-.09,7.18,1.07,9.21,3.34a14.48,14.48,0,0,1,1.88,2.52c-2.35,1.5-2.34,1.48-5.71,3.67a5.42,5.42,0,0,0-3.18-3c-2-.59-4.43,0-4.94,2.12a4,4,0,0,0,.14,2.29c.79,1.81,3.46,2.6,5.85,3.7,6.88,2.79,9.2,5.78,9.77,9.34A10.78,10.78,0,0,1,101.92,95.27Z"/></svg>