<svg id="Camada_1" data-name="Camada 1" xmlns="http://www.w3.org/2000/svg" viewBox="0 0 139 139"><defs><style>.cls-1{fill:#eeebeb;}</style></defs><title>assets</title><path class="cls-1" d="M30.49,30.53v78h78v-78Zm41.2,35.35H61.58V94.62l-.27.07a61.36,61.36,0,0,1-6.22,0l-.83-.07V65.88H44.15V59.42l3.2,0c1.76,0,6.27,0,10,0l10.58,0h3.74ZM96.51,91.57h0a11.07,11.07,0,0,1-5.74,3.17c-1.16.32-1.35.33-4,.32a12.3,12.3,0,0,1-4.08-.34A13.88,13.88,0,0,1,75,89.9a12.21,12.21,0,0,1-1.36-2.19s.13-.16.28-.23.49-.28.76-.44.76-.45,1.09-.62,1.28-.73,2.1-1.23a13.17,13.17,0,0,1,1.67-.91c.09,0,.25.17.37.38A10,10,0,0,0,83.55,88a11,11,0,0,0,3.19.67A8.75,8.75,0,0,0,89.53,88a3.4,3.4,0,0,0,1.62-1.42c.32-.5.35-.63.34-1.58a2.46,2.46,0,0,0-.29-1.53c-.69-1.12-1.61-1.7-5.37-3.36s-5.62-2.74-7-4.12a7.46,7.46,0,0,1-1.91-2.59c-.86-1.64-1-2.18-1-4.63a9.24,9.24,0,0,1,.21-2.86,11.81,11.81,0,0,1,1.46-3,11.05,11.05,0,0,1,1.61-1.65,11.76,11.76,0,0,1,6.72-2.35c.28,0,1.2.05,2.07.11a9.89,9.89,0,0,1,5.81,2.12c1.23,1,3.1,3.27,2.92,3.57s-5,3.43-5.31,3.53-.32,0-.59-.33c-1.66-2-2.33-2.42-3.94-2.51a3.47,3.47,0,0,0-2.52.57,2.75,2.75,0,0,0-1.2,2.49c0,1.65.65,2.43,3,3.59,1.51.75,2.8,1.35,2.9,1.35s3.28,1.57,4.1,2c3.8,2.23,5.35,4.52,5.75,8.47A9.51,9.51,0,0,1,96.51,91.57Z"/></svg>