<svg id="Camada_1" data-name="Camada 1" xmlns="http://www.w3.org/2000/svg" viewBox="0 0 139 139"><defs><style>.cls-1{fill:#eeebeb;fill-rule:evenodd;}</style></defs><title>assets</title><path class="cls-1" d="M40.87,30.49a9.75,9.75,0,0,0-9.53,10.2c.18,5.09-.06,11.69-1.72,17.08S25.14,66.58,20.53,67v5c4.61.44,7.43,3.86,9.09,9.25s1.89,12,1.72,17.08a9.76,9.76,0,0,0,9.54,10.2H98.13a9.76,9.76,0,0,0,9.54-10.2c-.18-5.09,0-11.69,1.71-17.08s4.48-8.81,9.09-9.25V67c-4.61-.44-7.42-3.86-9.09-9.25s-1.89-12-1.71-17.08a9.76,9.76,0,0,0-9.54-10.2Zm46.06,48c0,7.3-5.45,11.73-14.49,11.73H57.05a1.66,1.66,0,0,1-1.66-1.66h0V50.41a1.66,1.66,0,0,1,1.66-1.66h15.3c7.54,0,12.49,4.09,12.49,10.35a9.27,9.27,0,0,1-7.57,9v.23C83,69,86.93,73,86.93,78.52ZM70.76,54H62v12.4h7.39c5.71,0,8.86-2.3,8.86-6.41,0-3.86-2.71-6-7.48-6ZM62,71.33V85h9.1c5.94,0,9.09-2.38,9.09-6.87S77,71.33,70.7,71.33Z"/></svg>