<svg id="Camada_1" data-name="Camada 1" xmlns="http://www.w3.org/2000/svg" viewBox="0 0 139 139"><defs><style>.cls-1{fill:#eeebeb;}</style></defs><title>assets</title><path class="cls-1" d="M113.3,69.51c0-5.8-7.27-11.3-18.41-14.71,2.57-11.36,1.43-20.4-3.61-23.29a7.79,7.79,0,0,0-4-1v4a4.05,4.05,0,0,1,2,.47c2.43,1.39,3.48,6.69,2.66,13.51-.2,1.68-.52,3.45-.91,5.25a88,88,0,0,0-11.34-1.94,85.56,85.56,0,0,0-7.43-8.93c5.82-5.41,11.29-8.37,15-8.37v-4c-4.91,0-11.34,3.5-17.84,9.57-6.5-6-12.92-9.5-17.83-9.5v4c3.69,0,9.17,2.94,15,8.32a83.81,83.81,0,0,0-7.38,8.91,84.61,84.61,0,0,0-11.36,2A52.45,52.45,0,0,1,47,48.56c-.84-6.82.19-12.12,2.6-13.53a4,4,0,0,1,2.06-.47v-4a8,8,0,0,0-4,1c-5,2.9-6.14,11.91-3.55,23.23C32.93,58.24,25.7,63.72,25.7,69.51S33,80.81,44.11,84.22c-2.57,11.36-1.43,20.39,3.61,23.29a7.8,7.8,0,0,0,4,1c4.91,0,11.34-3.5,17.84-9.57,6.5,6,12.93,9.5,17.84,9.5a8.07,8.07,0,0,0,4-1c5-2.9,6.14-11.91,3.55-23.24,11.07-3.41,18.3-8.91,18.3-14.69ZM90.05,57.6c-.66,2.3-1.48,4.68-2.41,7.05-.73-1.43-1.5-2.85-2.34-4.28s-1.69-2.82-2.57-4.18q3.81.56,7.32,1.41Zm-8.18,19c-1.39,2.41-2.82,4.69-4.3,6.82-2.66.23-5.36.35-8.07.35s-5.39-.12-8-.34c-1.48-2.12-2.92-4.39-4.32-6.78S54.55,72,53.43,69.56c1.11-2.39,2.36-4.78,3.7-7.12s2.82-4.7,4.3-6.82c2.66-.24,5.36-.36,8.07-.36s5.39.12,8,.34C79,57.72,80.46,60,81.86,62.38s2.59,4.72,3.71,7.11c-1.12,2.39-2.36,4.79-3.7,7.13Zm5.77-2.33c1,2.4,1.79,4.79,2.47,7.11-2.34.57-4.81,1-7.36,1.43.87-1.38,1.75-2.79,2.57-4.23s1.59-2.88,2.32-4.31ZM69.54,93.35a74.25,74.25,0,0,1-5-5.72c1.61.07,3.25.13,4.91.13s3.34,0,5-.13A71.82,71.82,0,0,1,69.54,93.35ZM56.25,82.83c-2.53-.38-5-.84-7.32-1.41.66-2.3,1.48-4.68,2.41-7,.73,1.42,1.5,2.85,2.34,4.28S55.38,81.47,56.25,82.83Zm13.2-37.16c1.66,1.72,3.32,3.63,5,5.71-1.61-.07-3.25-.12-4.91-.12s-3.34,0-5,.12A69.35,69.35,0,0,1,69.45,45.67ZM56.23,56.19c-.87,1.37-1.75,2.78-2.57,4.23s-1.59,2.86-2.32,4.29c-1-2.4-1.79-4.79-2.46-7.11,2.34-.55,4.8-1,7.35-1.41ZM40.07,78.54c-6.32-2.69-10.41-6.23-10.41-9s4.09-6.36,10.41-9c1.54-.66,3.22-1.25,5-1.8a86,86,0,0,0,4,10.87,83.53,83.53,0,0,0-4,10.83c-1.76-.56-3.44-1.17-5-1.83Zm9.61,25.52c-2.43-1.39-3.48-6.7-2.66-13.52.2-1.68.52-3.44.91-5.25a86.24,86.24,0,0,0,11.34,1.95,87.7,87.7,0,0,0,7.43,8.93c-5.82,5.41-11.29,8.37-15,8.37a4.33,4.33,0,0,1-2-.48ZM92,90.45c.84,6.83-.19,12.13-2.6,13.54a4,4,0,0,1-2.06.46c-3.69,0-9.17-2.94-15-8.32a83.81,83.81,0,0,0,7.38-8.91,84.61,84.61,0,0,0,11.36-2A48.19,48.19,0,0,1,92,90.45Zm6.88-11.91c-1.54.66-3.22,1.25-5,1.81a85.09,85.09,0,0,0-4-10.88,84.81,84.81,0,0,0,4-10.82c1.77.56,3.45,1.16,5,1.82,6.32,2.7,10.41,6.24,10.41,9s-4.11,6.36-10.43,9Z"/><circle class="cls-1" cx="69.48" cy="69.51" r="8.16"/></svg>