<svg id="Camada_1" data-name="Camada 1" xmlns="http://www.w3.org/2000/svg" viewBox="0 0 139 139"><defs><style>.cls-1{fill:#eeebeb;}</style></defs><title>assets</title><path class="cls-1" d="M54.85,35.71V41h8.4v-3.5H58.36V34h4.89v-3.5h-8.4Zm10.07-1.83v3.43H69.8v.6H64.91v3.18H73.3v-7H68.41v-.6H73.3v-3H64.91Zm10.09,0v3.44h4.84v.6H75v3.18h8.35v-7H78.52v-.6h4.84v-3H75ZM41.86,46c0,.09,1.15,12.79,2.52,28.23s2.5,28.07,2.51,28.08l11.29,3.14,11.29,3.13,11.32-3.13,11.32-3.15s1.13-12.62,2.5-28.05S97.12,46.08,97.13,46l0-.17H41.84Zm45,11.49c0,.1-.33,3.79-2.26,25.38-.48,5.38-.89,9.79-.91,9.81s-14.06,3.92-14.17,3.92-14.16-3.89-14.19-3.93-.23-2.37-.48-5.25L54.32,82l0-.2h7s.11,1.25.25,2.75.25,2.75.26,2.75,1.74.49,3.85,1.06l3.84,1,3.84-1,3.86-1.06s.79-8.56.79-8.8v-.17H54v-.11c0-.07-.13-1.62-.3-3.45s-.29-3.34-.29-3.35H78.61v-.11c0-.06.13-1.63.3-3.48s.3-3.4.3-3.44-1-.07-13.23-.08H52.75l-.28-3.14c-.16-1.73-.3-3.28-.32-3.45l0-.31h34.7Z"/></svg>