<svg id="Camada_1" data-name="Camada 1" xmlns="http://www.w3.org/2000/svg" viewBox="0 0 54 54"><defs><style>.cls-1{fill:#008070;}</style></defs><title>assets</title><path class="cls-1" d="M13.37,31.83a.21.21,0,0,1,0-.36,1,1,0,0,1,.91-.28,1.44,1.44,0,0,1,.65.19,4,4,0,0,1,1.42,1.24A10.18,10.18,0,0,0,17.59,34a3.42,3.42,0,0,0,4.51.27,2.85,2.85,0,0,1,.59-1.1,2.78,2.78,0,0,1,.78-.64c.25-.12.68-.31,1.29-.55a17.41,17.41,0,0,1-4.92-1.06,8.26,8.26,0,0,1-3-2,7.66,7.66,0,0,1-1.79-4.32,11,11,0,0,1,.41-4.87A8.37,8.37,0,0,1,17,17.22,8.19,8.19,0,0,1,17.32,12a9.6,9.6,0,0,1,5.33,2,20.12,20.12,0,0,1,9.55-.1,18.69,18.69,0,0,1,2-1.14A8.22,8.22,0,0,1,37.53,12,9.64,9.64,0,0,1,38,14.37,7.82,7.82,0,0,1,37.9,17a8.46,8.46,0,0,1,2.21,5.88,10.5,10.5,0,0,1-1,4.87,7.79,7.79,0,0,1-3.59,3.22,12.91,12.91,0,0,1-4.59,1,6.07,6.07,0,0,1,1.88,1.33,4,4,0,0,1,.78,2.16v2.89l.1,2.81A3.46,3.46,0,0,0,35,42.36a.31.31,0,0,1,.19.41c-.07.18-.31.28-.74.28a3,3,0,0,1-2.48-1.11,2.11,2.11,0,0,1-.28-1.1V36.43a1.37,1.37,0,0,0-.36-1.06,1.84,1.84,0,0,0-.74-.41v5.79a3.58,3.58,0,0,0,.37,2,2.21,2.21,0,0,1,.46.92c.06.06,0,.11-.14.14a1.85,1.85,0,0,1-.78-.14,2.28,2.28,0,0,1-1.66-1.24,4.82,4.82,0,0,1-.46-2.07v-5.7H27.15v5.7a5,5,0,0,1-.46,2.11,2.58,2.58,0,0,1-2.39,1.38q-.27-.09-.27-.18a8.87,8.87,0,0,0,.55-.92,5.43,5.43,0,0,0,.23-.73,5.51,5.51,0,0,0,.13-1.29V35a1.48,1.48,0,0,0-.68.41,1.45,1.45,0,0,0-.33,1.06v4.41a2.11,2.11,0,0,1-.27,1.1,2.9,2.9,0,0,1-2.48,1.11c-.43,0-.68-.1-.74-.28a.26.26,0,0,1,0-.32,2.8,2.8,0,0,1,.41-.32,3,3,0,0,0,.37-.28,1.69,1.69,0,0,0,.55-.73A3.56,3.56,0,0,0,22,39.19a9.68,9.68,0,0,1-.05-2A5.29,5.29,0,0,1,17,36.34a9,9,0,0,1-1.47-2.12,9.4,9.4,0,0,0-2.2-2.39Z"/></svg>