<svg id="Camada_1" data-name="Camada 1" xmlns="http://www.w3.org/2000/svg" xmlns:xlink="http://www.w3.org/1999/xlink" viewBox="0 0 77.52 24.76"><defs><style>.cls-1{fill:none;}.cls-2{clip-path:url(#clip-path);}.cls-3{fill:#99cfc1;}.cls-4{fill:#232323;}</style><clipPath id="clip-path"><rect class="cls-1" x="-0.63" y="-642.48" width="457.35" height="457.35"/></clipPath></defs><title>assets</title><g class="cls-2"><image width="3648" height="5472" transform="translate(-0.63 -642.48) scale(0.13)" xlink:href="../../../../../../../Pictures/Fotos%20Mateus/RUINAPUNXINTERNO-1.jpg"/></g><path class="cls-3" d="M4,13.44l-1.48.39v.08L4,14.29,12.35,18v1.72L1,14.5V13.17L12.35,8V9.73Z"/><path class="cls-3" d="M15.45,23.06H14L22.29,1.44h1.47Z"/><path class="cls-4" d="M25.28,9V6.55h5.84l.16,2a4.89,4.89,0,0,1,4.27-2.23A4.51,4.51,0,0,1,38,6.91a3.86,3.86,0,0,1,1.53,1.9A5.22,5.22,0,0,1,41.29,7a4.8,4.8,0,0,1,2.57-.67,4.24,4.24,0,0,1,3.45,1.51,7.07,7.07,0,0,1,1.27,4.6v6.15L50.5,19v2.4H42.86V19l1.72-.41V12.38A3.79,3.79,0,0,0,44,10a2,2,0,0,0-1.63-.66A2.67,2.67,0,0,0,40,10.81c0,.17,0,.32,0,.44s0,.25,0,.38v6.91l1.61.41v2.4h-7.2V19L36,18.54V12.38a3.71,3.71,0,0,0-.55-2.32,2,2,0,0,0-1.64-.68,3.12,3.12,0,0,0-1.41.31,2.74,2.74,0,0,0-1,.87v8l1.72.41v2.4H25.48V19l1.93-.41V9.37Z"/><path class="cls-4" d="M52.09,19,54,18.54V9.37L51.89,9V6.55h5.83l.18,2.16a4.71,4.71,0,0,1,1.34-1.79,3,3,0,0,1,1.9-.64,5.14,5.14,0,0,1,.66,0,4.86,4.86,0,0,1,.59.11L62,10.08l-1.64,0a2.78,2.78,0,0,0-1.45.34,2.22,2.22,0,0,0-.87,1v7.19l1.91.41v2.4H52.09Z"/><path class="cls-3" d="M64.42,9.81V8.13L76,13.29v1.33L64.42,19.8V18.11l8.63-3.75L74.53,14v-.08l-1.48-.4Z"/></svg>