<svg id="Camada_1" data-name="Camada 1" xmlns="http://www.w3.org/2000/svg" xmlns:xlink="http://www.w3.org/1999/xlink" viewBox="0 0 77 24"><defs><style>.cls-1{fill:none;}.cls-2{clip-path:url(#clip-path);}.cls-3{fill:#99cfc1;}.cls-4{fill:#eeebeb;}</style><clipPath id="clip-path"><rect class="cls-1" x="-0.89" y="-594.36" width="457.35" height="457.35"/></clipPath></defs><title>assets</title><g class="cls-2"><image width="3648" height="5472" transform="translate(-0.89 -594.36) scale(0.13)" xlink:href="../../../../../../../Pictures/Fotos%20Mateus/RUINAPUNXINTERNO-1.jpg"/></g><path class="cls-3" d="M3.69,13.07l-1.47.38v.08l1.47.38,8.4,3.67V19.3L.78,14.12V12.79L12.09,7.62V9.35Z"/><path class="cls-3" d="M15.19,22.68H13.71L22,1.06H23.5Z"/><path class="cls-4" d="M25,8.58V6.18h5.84l.16,2a5,5,0,0,1,1.79-1.65,5.19,5.19,0,0,1,2.48-.58,4.48,4.48,0,0,1,2.43.63,3.81,3.81,0,0,1,1.53,1.9A5.22,5.22,0,0,1,41,6.57,4.9,4.9,0,0,1,43.6,5.9a4.27,4.27,0,0,1,3.45,1.51A7,7,0,0,1,48.32,12v6.16l1.93.41V21H42.6V18.58l1.73-.41V12a3.78,3.78,0,0,0-.55-2.34A2,2,0,0,0,42.15,9a2.82,2.82,0,0,0-1.47.37,2.78,2.78,0,0,0-1,1c0,.17,0,.32,0,.44s0,.25,0,.38v6.92l1.61.41V21h-7.2V18.58l1.61-.41V12a3.73,3.73,0,0,0-.55-2.32A2,2,0,0,0,33.55,9a3.12,3.12,0,0,0-1.41.3,2.83,2.83,0,0,0-1,.87v8l1.73.41V21H25.23V18.58l1.92-.41V9Z"/><path class="cls-4" d="M51.83,18.58l1.92-.41V9l-2.12-.41V6.18h5.83l.18,2.16A4.78,4.78,0,0,1,59,6.54a3,3,0,0,1,1.9-.64,5.43,5.43,0,0,1,.67,0,3.45,3.45,0,0,1,.58.12L61.7,9.7l-1.64,0a2.91,2.91,0,0,0-1.45.34,2.27,2.27,0,0,0-.87,1v7.2l1.91.41V21H51.83Z"/><path class="cls-3" d="M64.16,9.43V7.75L75.7,12.92v1.32L64.16,19.42V17.73L72.79,14l1.48-.37v-.08l-1.48-.4Z"/></svg>