<svg id="Camada_1" data-name="Camada 1" xmlns="http://www.w3.org/2000/svg" viewBox="0 0 54 54"><defs><style>.cls-1{fill:#008070;}</style></defs><title>assets</title><path class="cls-1" d="M15.05,17.59a2.41,2.41,0,0,1,.79-1.85,2.89,2.89,0,0,1,2-.72,2.77,2.77,0,0,1,2,.71,2.56,2.56,0,0,1,.79,1.93,2.34,2.34,0,0,1-.77,1.79,2.85,2.85,0,0,1-2.06.74h0a2.73,2.73,0,0,1-2-.74A2.5,2.5,0,0,1,15.05,17.59Zm.29,19.62v-15h5v15Zm7.74,0h5V28.85a3.27,3.27,0,0,1,.18-1.22,3.33,3.33,0,0,1,.95-1.28,2.4,2.4,0,0,1,1.61-.53c1.67,0,2.51,1.13,2.51,3.38v8h5V28.62a7.19,7.19,0,0,0-1.57-5,5.34,5.34,0,0,0-4.14-1.72,5.1,5.1,0,0,0-4.51,2.49v.05h0l0-.05V22.23h-5c0,.48,0,2,0,4.46S23.11,32.69,23.08,37.21Z"/></svg>