<svg id="Camada_1" data-name="Camada 1" xmlns="http://www.w3.org/2000/svg" viewBox="0 0 178 178"><defs><style>.cls-1{fill:#eeebeb;}</style></defs><title>assets</title><path class="cls-1" d="M70.24,45.73v6.74H81V48H74.73V43.49H81V39H70.24Zm12.89-2.35,0,4.39,3.12,0h3.11v.77H83.12v4.08H93.87v-9H87.61V42.9h6.26V39H83.12Zm12.93,0v4.4h6.2v.77h-6.2v4.08h10.69v-9h-6.2V42.9h6.2V39H96.06ZM53.61,58.86c0,.11,1.47,16.37,3.23,36.14S60,131,60.05,131s6.5,1.82,14.46,4L89,139l14.49-4c8-2.21,14.5-4,14.5-4s1.45-16.16,3.21-35.92,3.21-36,3.23-36.14l0-.22H53.58Zm57.57,14.71c0,.13-.42,4.85-2.89,32.5-.61,6.88-1.14,12.54-1.17,12.56s-18,5-18.14,5-18.14-5-18.18-5-.29-3-.61-6.72-.61-6.82-.63-7l0-.25h8.93s.14,1.6.32,3.52.32,3.52.33,3.53,2.23.62,4.94,1.35L89,114.43l4.92-1.33,5-1.35s1-11,1-11.27v-.22H69.12v-.15c0-.08-.17-2.07-.39-4.42s-.38-4.27-.38-4.28h32.31v-.15c0-.08.18-2.08.39-4.45s.38-4.35.38-4.4-1.3-.1-16.93-.11l-17,0-.36-4-.4-4.41,0-.4h44.43Z"/></svg>