<svg id="Camada_1" data-name="Camada 1" xmlns="http://www.w3.org/2000/svg" viewBox="0 0 178 178"><defs><style>.cls-1{fill:#eeebeb;}</style></defs><title>assets</title><path class="cls-1" d="M145.15,89c0-7.44-9.32-14.49-23.6-18.86,3.29-14.56,1.83-26.14-4.63-29.85A10,10,0,0,0,111.8,39v5.11a5.3,5.3,0,0,1,2.61.59c3.11,1.79,4.46,8.59,3.41,17.33-.26,2.15-.67,4.42-1.17,6.73a110.83,110.83,0,0,0-14.53-2.5,111.25,111.25,0,0,0-9.53-11.44c7.47-6.94,14.47-10.74,19.23-10.74V39C105.53,39,97.29,43.49,89,51.27c-8.33-7.74-16.57-12.18-22.86-12.18V44.2c4.74,0,11.76,3.77,19.22,10.66a110.36,110.36,0,0,0-9.45,11.42A107.44,107.44,0,0,0,61.3,68.8c-.52-2.29-.91-4.51-1.19-6.64-1.07-8.74.26-15.54,3.35-17.35a5.1,5.1,0,0,1,2.63-.59V39.11a10.2,10.2,0,0,0-5.17,1.29C54.48,44.1,53,55.66,56.36,70.17,42.12,74.57,32.85,81.6,32.85,89s9.32,14.49,23.6,18.86c-3.29,14.56-1.83,26.14,4.63,29.85A10,10,0,0,0,66.23,139c6.29,0,14.53-4.49,22.86-12.27,8.33,7.74,16.57,12.18,22.87,12.18a10.2,10.2,0,0,0,5.17-1.28c6.43-3.71,7.87-15.27,4.55-29.78,14.2-4.37,23.47-11.42,23.47-18.84ZM115.34,73.74c-.84,3-1.9,6-3.09,9.05-.93-1.84-1.92-3.67-3-5.5s-2.18-3.61-3.3-5.35c3.25.48,6.39,1.07,9.38,1.8ZM104.86,98.12c-1.78,3.09-3.61,6-5.51,8.74-3.41.3-6.87.46-10.35.46s-6.91-.16-10.3-.43q-2.85-4.1-5.54-8.7T68.4,89.08C69.82,86,71.42,83,73.14,80s3.61-6,5.51-8.75c3.41-.29,6.87-.45,10.35-.45s6.91.16,10.3.43q2.85,4.09,5.54,8.7T109.6,89c-1.44,3.07-3,6.13-4.74,9.13Zm7.39-3a95.89,95.89,0,0,1,3.16,9.11c-3,.73-6.15,1.35-9.43,1.83,1.12-1.77,2.25-3.57,3.3-5.43s2-3.68,3-5.51Zm-23.2,24.42a95.26,95.26,0,0,1-6.37-7.33c2.06.09,4.17.16,6.3.16s4.28,0,6.36-.16A90.68,90.68,0,0,1,89.05,119.57ZM72,106.09c-3.25-.48-6.39-1.08-9.39-1.81.85-3,1.9-6,3.09-9,.94,1.83,1.92,3.66,3,5.49S70.9,104.35,72,106.09ZM88.93,58.46a91.11,91.11,0,0,1,6.36,7.32c-2.06-.09-4.16-.16-6.29-.16s-4.28,0-6.36.16A88.79,88.79,0,0,1,88.93,58.46ZM72,71.94c-1.12,1.76-2.24,3.57-3.29,5.42s-2,3.66-3,5.49c-1.23-3.06-2.29-6.13-3.16-9.11,3-.7,6.16-1.32,9.43-1.8ZM51.28,100.59c-8.1-3.45-13.34-8-13.34-11.58s5.24-8.15,13.34-11.58c2-.85,4.12-1.6,6.34-2.31a109.72,109.72,0,0,0,5.15,13.94,107.05,107.05,0,0,0-5.08,13.87,68.22,68.22,0,0,1-6.41-2.34ZM63.59,133.3c-3.11-1.78-4.46-8.58-3.41-17.33.26-2.15.67-4.41,1.17-6.73a110.83,110.83,0,0,0,14.53,2.5,111.25,111.25,0,0,0,9.53,11.44c-7.47,6.94-14.47,10.74-19.23,10.74a5.44,5.44,0,0,1-2.59-.62Zm54.3-17.44c1.07,8.74-.26,15.54-3.35,17.35a5.1,5.1,0,0,1-2.63.59c-4.74,0-11.76-3.77-19.22-10.66a110.36,110.36,0,0,0,9.45-11.42,107.44,107.44,0,0,0,14.56-2.52C117.22,111.51,117.63,113.73,117.89,115.86Zm8.81-15.27a67,67,0,0,1-6.34,2.31A110.58,110.58,0,0,0,115.21,89a109.67,109.67,0,0,0,5.08-13.87c2.26.7,4.42,1.48,6.43,2.33,8.1,3.46,13.34,8,13.34,11.58s-5.26,8.15-13.36,11.58Z"/><circle class="cls-1" cx="88.98" cy="89.01" r="10.46"/></svg>