<svg id="Camada_1" data-name="Camada 1" xmlns="http://www.w3.org/2000/svg" viewBox="0 0 178 178"><defs><style>.cls-1{fill:#eeebeb;fill-rule:evenodd;}</style></defs><title>assets</title><path class="cls-1" d="M52.31,39c-7.17,0-12.47,6.27-12.23,13.07.23,6.53-.07,15-2.2,21.89s-5.75,11.3-11.65,11.86v6.36c5.9.56,9.52,4.94,11.65,11.86s2.43,15.36,2.2,21.89c-.24,6.8,5.06,13.07,12.23,13.07H125.7c7.16,0,12.46-6.27,12.23-13.07-.23-6.53.06-15,2.19-21.89s5.74-11.3,11.65-11.86V85.82c-5.9-.56-9.51-4.94-11.65-11.86s-2.42-15.36-2.19-21.89c.23-6.8-5.07-13.07-12.23-13.07Zm59,61.56c0,9.36-7,15-18.57,15H73a2.14,2.14,0,0,1-2.13-2.13h0V64.53A2.14,2.14,0,0,1,73,62.4H92.66c9.66,0,16,5.24,16,13.27A11.89,11.89,0,0,1,99,87.25v.29c7.4.81,12.38,5.94,12.38,13ZM90.62,69.15H79.37V85h9.47c7.33,0,11.37-3,11.37-8.22,0-4.94-3.48-7.67-9.59-7.67ZM79.37,91.34v17.51H91c7.63,0,11.67-3.06,11.67-8.81s-4.16-8.7-12.16-8.7Z"/></svg>