<svg id="Camada_1" data-name="Camada 1" xmlns="http://www.w3.org/2000/svg" viewBox="0 0 178 178"><defs><style>.cls-1{fill:#eeebeb;}</style></defs><title>assets</title><path class="cls-1" d="M60.17,39h4.51v4.45H68.8V39h4.51V52.49H68.8V48H64.68v4.52H60.17V39Zm19.06,4.47h-4V39H87.71v4.47h-4v9H79.23ZM89.69,39h4.7l2.89,4.74L100.16,39h4.71V52.49h-4.49V45.8l-3.1,4.8H97.2l-3.1-4.8v6.69H89.69V39Zm17.42,0h4.51v9H118v4.46H107.11Z"/><path class="cls-1" d="M53.58,58.65,60,131,89,139l29-8,6.45-72.31ZM111,75.81l-.4,4.5-.18,2H76.45l.81,9.09h32.33l-.22,2.38-2.08,23.35-.14,1.5-18.15,5h0l-18.17-5-1.24-13.93h8.9l.63,7.07L89,114.43h0l9.89-2.67,1-11.5H69.15L67,75.81l-.21-2.38h44.43Z"/></svg>