<svg id="Camada_1" data-name="Camada 1" xmlns="http://www.w3.org/2000/svg" viewBox="0 0 178 178"><defs><style>.cls-1{fill:#eeebeb;}</style></defs><title>assets</title><path class="cls-1" d="M39,39V139H139V39Zm52.71,85.65a11.82,11.82,0,0,1-7.55,5.91,18.14,18.14,0,0,1-13.36-1.65,15,15,0,0,1-5.52-6.31l7.61-4.66a5.7,5.7,0,0,1,.53.86,8,8,0,0,0,3.45,3.58c1.62.56,5.16.91,6.53-1.94.84-1.44.57-6.15.57-11.3C84,101.06,84,93,84,85h9.35c0,8.6,0,17.18,0,25.75C93.38,116,93.84,120.72,91.71,124.65Zm38.8-2.65c-3.25,11.13-21.38,11.49-28.62,4.14a16.79,16.79,0,0,1-3.4-4.63l7.59-4.38c2,3.12,3.92,4.85,7.3,5.55,4.59.56,9.21-1,8.18-5.89-1.07-4-9.4-5-15.08-9.22-5.76-3.86-7.11-13.27-2.38-18.64a13.39,13.39,0,0,1,7.1-4.18l2.94-.38c5.66-.11,9.19,1.38,11.79,4.28a18.61,18.61,0,0,1,2.41,3.23c-3,1.92-3,1.9-7.32,4.7A7,7,0,0,0,117,92.8c-2.51-.76-5.68.07-6.33,2.72a5.08,5.08,0,0,0,.18,2.93c1,2.32,4.43,3.33,7.49,4.73,8.81,3.58,11.78,7.41,12.52,12A13.75,13.75,0,0,1,130.51,122Z"/></svg>