<svg id="Camada_1" data-name="Camada 1" xmlns="http://www.w3.org/2000/svg" viewBox="0 0 26.83 31.89"><defs><style>.cls-1{fill:#eeebeb;}</style></defs><title>assets</title><path class="cls-1" d="M.09,19.85a.24.24,0,0,1,0-.37A1,1,0,0,1,1,19.21a1.58,1.58,0,0,1,.64.18,4.11,4.11,0,0,1,1.43,1.24A9,9,0,0,0,4.32,22a3.41,3.41,0,0,0,4.5.28,2.62,2.62,0,0,1,.6-1.1,3,3,0,0,1,.78-.65c.25-.12.67-.3,1.29-.55a17.1,17.1,0,0,1-4.92-1.05,8.44,8.44,0,0,1-3-2,7.73,7.73,0,0,1-1.79-4.32,11.12,11.12,0,0,1,.42-4.87A7.76,7.76,0,0,1,3.77,5.24,8.25,8.25,0,0,1,4,0,9.56,9.56,0,0,1,9.37,2a20.17,20.17,0,0,1,9.56-.09,16.85,16.85,0,0,1,2-1.15A8,8,0,0,1,24.26,0a10,10,0,0,1,.51,2.39A8,8,0,0,1,24.63,5a8.45,8.45,0,0,1,2.2,5.88,10.34,10.34,0,0,1-1,4.87,7.76,7.76,0,0,1-3.58,3.22,12.76,12.76,0,0,1-4.6,1,6.13,6.13,0,0,1,1.89,1.33,4,4,0,0,1,.78,2.16v2.9l.09,2.8a3.34,3.34,0,0,0,.64.78,2.93,2.93,0,0,0,.65.46.32.32,0,0,1,.18.42c-.06.18-.3.27-.73.27A3.06,3.06,0,0,1,18.66,30a2,2,0,0,1-.28-1.1V24.44A1.3,1.3,0,0,0,18,23.39a1.84,1.84,0,0,0-.73-.42v5.79a3.71,3.71,0,0,0,.36,2,2.07,2.07,0,0,1,.46.91c.07.07,0,.11-.13.14a1.71,1.71,0,0,1-.79-.14,2.26,2.26,0,0,1-1.65-1.24,4.67,4.67,0,0,1-.46-2.06V22.7H13.88v5.7a5.14,5.14,0,0,1-.46,2.11A2.59,2.59,0,0,1,11,31.89c-.19-.06-.28-.12-.28-.18a8.18,8.18,0,0,0,.55-.92,4.46,4.46,0,0,0,.23-.74,5,5,0,0,0,.14-1.29V23a1.59,1.59,0,0,0-.69.42,1.46,1.46,0,0,0-.32,1.06v4.41a2,2,0,0,1-.28,1.1,2.9,2.9,0,0,1-2.48,1.1c-.43,0-.67-.09-.73-.27a.27.27,0,0,1,0-.33,4,4,0,0,1,.42-.32A4.1,4.1,0,0,0,8,29.87a1.8,1.8,0,0,0,.55-.74,3.48,3.48,0,0,0,.13-1.93,9.33,9.33,0,0,1,0-2,5.3,5.3,0,0,1-4.87-.83A8.92,8.92,0,0,1,2.3,22.24,9.48,9.48,0,0,0,.09,19.85Z"/></svg>