<svg id="Camada_1" data-name="Camada 1" xmlns="http://www.w3.org/2000/svg" viewBox="0 0 178 178"><defs><style>.cls-1{fill:#eeebeb;}</style></defs><title>assets</title><path class="cls-1" d="M39,39V139H139V39ZM91.81,84.31h-13v36.85l-.34.09c-.47.12-6.64.12-8,0l-1.06-.09V84.31h-13V76l4.11,0c2.25,0,8,0,12.84,0S84.36,76,87,76h4.79Zm31.82,32.94h0a14.25,14.25,0,0,1-7.36,4.06c-1.49.41-1.74.42-5.08.41s-3.61,0-5.24-.44a17.83,17.83,0,0,1-9.9-6.17,15,15,0,0,1-1.74-2.81c0-.07.16-.21.36-.3s.63-.36,1-.56,1-.58,1.39-.8,1.64-.94,2.7-1.58a16.43,16.43,0,0,1,2.14-1.15c.11,0,.32.21.47.48a12.74,12.74,0,0,0,4.68,4.28,14,14,0,0,0,4.07.86,11,11,0,0,0,3.58-.83,4.27,4.27,0,0,0,2.08-1.81c.41-.64.45-.81.44-2a3.06,3.06,0,0,0-.38-2c-.87-1.44-2.06-2.19-6.87-4.32-5-2.2-7.21-3.51-9-5.28A9.56,9.56,0,0,1,98.47,94c-1.1-2.11-1.24-2.8-1.25-5.94a11.81,11.81,0,0,1,.26-3.67,15.26,15.26,0,0,1,1.88-3.84,13.84,13.84,0,0,1,2.06-2.11,15,15,0,0,1,8.61-3c.36,0,1.55.06,2.66.14a12.7,12.7,0,0,1,7.45,2.72c1.58,1.25,4,4.19,3.73,4.58-.15.23-6.39,4.39-6.79,4.51-.25.08-.42,0-.77-.42-2.12-2.54-3-3.09-5-3.22a4.53,4.53,0,0,0-3.24.74,3.54,3.54,0,0,0-1.53,3.19c0,2.12.83,3.12,3.83,4.61,1.94,1,3.59,1.73,3.72,1.73s4.2,2,5.25,2.62c4.87,2.86,6.86,5.8,7.37,10.86A12.19,12.19,0,0,1,123.63,117.25Z"/></svg>